<svg width="20" height="17" viewBox="0 0 20 17" xmlns="http://www.w3.org/2000/svg">
<path d="M19.2 8.10336C19.2 7.77449 19.0694 7.46013 18.8373 7.22799C18.6051 6.99585 18.2908 6.86526 17.9619 6.86526H4.3827L9.4162 2.17285C9.67011 1.95279 9.82246 1.63842 9.84059 1.3023C9.85752 0.967397 9.73782 0.638526 9.5081 0.393072C9.27838 0.147627 8.95919 0.0061643 8.62304 0.000128549C8.28693 -0.00470748 7.96289 0.127084 7.72591 0.365276L0.392942 7.19651C0.142663 7.43107 0 7.75873 0 8.10212C0 8.44551 0.142672 8.77317 0.392942 9.00773L7.72591 15.8414C8.22648 16.3081 9.00995 16.2816 9.47665 15.781C9.94336 15.2816 9.91556 14.497 9.4162 14.0303L4.38269 9.34155H17.9619C18.2908 9.34155 18.6051 9.21097 18.8373 8.97882C19.0694 8.74667 19.2 8.43232 19.2 8.10345L19.2 8.10336Z" fill="black"/>
</svg>
