<svg xmlns="http://www.w3.org/2000/svg">
<path d="M7.78144 11.7186H0.333344V19.1667H7.78144V11.7186ZM5.48972 16.8749H2.62507V14.0103H5.48972V16.8749Z M7.78144 1.69226H0.333344V9.14036H7.78144V1.69226ZM5.48972 6.84864H2.62507V3.98398H5.48972V6.84864Z M17.8077 11.7186H10.3596V19.1667H17.8077V11.7186ZM15.516 16.8749H12.6513V14.0103H15.516V16.8749Z M16.1774 1.6407C15.0987 0.564224 13.3519 0.564224 12.2732 1.6407L10.5913 3.32257C9.51598 4.40128 9.51598 6.14806 10.5913 7.2268L12.2732 8.90867C13.3519 9.98403 15.0987 9.98403 16.1774 8.90867L17.8593 7.2268C18.9358 6.14809 18.9358 4.40131 17.8593 3.32257L16.1774 1.6407ZM16.2401 5.60538L14.5582 7.28725H14.5594C14.3747 7.46517 14.0815 7.46517 13.898 7.28725L12.2162 5.60538C12.0371 5.42075 12.0371 5.12756 12.2162 4.94405L13.898 3.26218C14.0815 3.08314 14.3747 3.08314 14.5594 3.26218L16.2412 4.94405C16.4191 5.12757 16.4191 5.42076 16.2412 5.60538H16.2401Z" fill="black"/>
</svg>
