<svg width="20" height="20" viewBox="0 0 20 20" xmlns="http://www.w3.org/2000/svg">
    <path d="M18.4 2.8H1.60002C0.937524 2.8 0.400024 3.3375 0.400024 4C0.400024 4.6625 0.937524 5.2 1.60002 5.2H18.4C19.0625 5.2 19.6 4.6625 19.6 4C19.6 3.3375 19.0625 2.8 18.4 2.8Z" fill="black"/>
    <path d="M18.4 8.8H1.60002C0.937524 8.8 0.400024 9.3375 0.400024 10C0.400024 10.6625 0.937524 11.2 1.60002 11.2H18.4C19.0625 11.2 19.6 10.6625 19.6 10C19.6 9.3375 19.0625 8.8 18.4 8.8Z" fill="black"/>
    <path d="M1.60002 14.8H18.4C19.0625 14.8 19.6 15.3375 19.6 16C19.6 16.6625 19.0625 17.2 18.4 17.2H1.60002C0.937524 17.2 0.400024 16.6625 0.400024 16C0.400024 15.3375 0.937524 14.8 1.60002 14.8Z" fill="black"/>
</svg>
