<svg width="15" height="15" viewBox="0 0 15 15" xmlns="http://www.w3.org/2000/svg">
<path d="M6.44223 11.6815C7.60223 11.6828 8.73599 11.3365 9.69791 10.6878L13.0773 14.0665C13.5166 14.5065 14.2298 14.5065 14.6698 14.0665C15.1098 13.6265 15.1098 12.9134 14.6698 12.474L11.291 9.09466C12.2654 7.64216 12.5379 5.82842 12.0323 4.15338C11.5273 2.47834 10.2979 1.11834 8.68221 0.447139C7.06653 -0.224109 5.23469 -0.135981 3.69165 0.687139C2.14791 1.51088 1.05485 2.98282 0.712292 4.69834C0.37042 6.41402 0.815416 8.19274 1.92541 9.54522C3.03479 10.8977 4.69293 11.682 6.44221 11.6815H6.44223ZM6.44223 1.34842C7.63347 1.34779 8.77535 1.82092 9.61791 2.66343C10.4598 3.50592 10.9329 4.64775 10.9329 5.83911C10.9329 7.03047 10.4598 8.17223 9.61791 9.01479C8.77541 9.85666 7.63359 10.3298 6.44223 10.3298C5.25087 10.3298 4.10911 9.85668 3.26655 9.01479C2.42468 8.17229 1.95092 7.03047 1.95154 5.83911C1.95279 4.64848 2.42591 3.50663 3.2678 2.66471C4.10968 1.82279 5.25148 1.3497 6.4422 1.34845L6.44223 1.34842Z" fill="black"/>
</svg>
